<svg width="801" height="778" viewBox="0 0 801 778" fill="none" xmlns="http://www.w3.org/2000/svg">
<g opacity="0.015">
<path d="M0 199.757V0C333.271 41.6885 384.766 298.188 368.855 421.227C132.788 459.442 24.5903 289.503 0 199.757Z" fill="white"/>
<path d="M277.726 490.708H368.855C282.066 737.365 92.5754 784.554 8.67894 777.316C15.6221 551.504 190.937 492.155 277.726 490.708Z" fill="white"/>
<path d="M800.785 199.757V0C467.514 41.6885 416.019 298.188 431.93 421.227C667.997 459.442 776.195 289.503 800.785 199.757Z" fill="white"/>
<path d="M523.059 490.708H431.93C518.72 737.365 708.21 784.554 792.106 777.316C785.163 551.504 609.848 492.155 523.059 490.708Z" fill="white"/>
<rect x="144" y="305" width="100" height="100" fill="#D9D9D9"/>
</g>
</svg>
