<svg width="20" height="20" viewBox="0 0 20 20" fill="none" xmlns="http://www.w3.org/2000/svg">
<path d="M14 0H6C2.691 0 0 2.691 0 6V19C0 19.2652 0.105357 19.5196 0.292893 19.7071C0.48043 19.8946 0.734784 20 1 20H14C17.309 20 20 17.309 20 14V6C20 2.691 17.309 0 14 0ZM18 14C18 16.206 16.206 18 14 18H2V6C2 3.794 3.794 2 6 2H14C16.206 2 18 3.794 18 6V14Z" fill="#DCCDCB"/>
<path d="M5 12.987V14.986H6.999L12.528 9.464L10.53 7.466L5 12.987ZM13.47 8.522L11.472 6.522L12.995 5L14.995 6.999L13.47 8.522Z" fill="#DCCDCB"/>
</svg>
