<svg width="175" height="58" viewBox="0 0 175 58" fill="none" xmlns="http://www.w3.org/2000/svg">
<path d="M165.609 39.0895C162.52 39.0895 160.467 37.2314 160.467 34.4302C160.467 31.6288 162.52 29.6851 165.609 29.6851C168.697 29.6851 170.749 31.579 170.749 34.4302C170.749 37.2814 168.697 39.0895 165.609 39.0895ZM165.609 42.5624C170.771 42.5624 174.608 39.3252 174.608 34.4302C174.608 29.2777 170.771 25.8977 165.609 25.8977C160.288 25.8977 156.601 29.2777 156.601 34.4302C156.601 39.3252 160.309 42.5624 165.609 42.5624ZM146.889 25.9834C144.311 25.9834 142.101 27.5912 140.646 29.4207V27.1197H136.938V41.6835H140.646V32.6008C141.332 31.75 142.192 31.0547 143.172 30.5617C144.15 30.0687 145.224 29.7894 146.321 29.7423C149.2 29.7423 150.51 31.7575 150.51 36.0953V41.6549H154.218V36.0953C154.218 30.3783 153.074 25.9549 146.889 25.9549V25.9834ZM124.318 38.7751C121.437 38.7751 120.516 38.3105 120.516 37.1385C120.516 35.8309 121.466 35.3092 124.296 35.3092H130.099V35.5665C130.099 37.553 127.694 38.7751 124.339 38.7751H124.318ZM134.044 41.7407V41.6549L133.605 38.7392V32.9153C133.605 28.7489 130.538 25.9834 125.045 25.9834C121.934 25.9834 118.442 27.3554 117.233 28.7205L118.068 32.1005L118.111 32.2792C119.681 30.6427 122.813 29.771 125.045 29.771C127.802 29.771 130.013 30.1497 130.084 32.6864H124.872C118.961 32.6864 116.729 34.4302 116.729 37.4887C116.729 41.0617 118.961 42.2409 123.31 42.2409C125.714 42.2409 128.76 41.1903 130.084 39.5896V41.7335L134.044 41.7407ZM110.148 41.7407H113.856V27.1197H110.148V41.7407ZM111.998 24.5899C110.789 24.5899 110.069 23.8038 110.069 22.2317C110.069 20.6596 110.839 19.8378 112.027 19.8378C113.215 19.8378 113.993 20.6524 113.993 22.2317C113.993 23.8109 113.222 24.6186 112.027 24.6186L111.998 24.5899ZM102.739 27.1197C101.772 27.8382 100.986 28.7703 100.443 29.8423V27.1197H96.7347V41.6691H100.443V33.0509V33.3082C101.074 32.0824 102.157 31.1456 103.467 30.6928C104.871 30.2628 106.37 30.2406 107.786 30.6285V26.3407C106.935 26.0843 106.037 26.0217 105.158 26.1577C104.279 26.2939 103.442 26.6252 102.71 27.1269L102.739 27.1197ZM84.0845 38.8108C81.2047 38.8108 80.283 38.3463 80.283 37.1743C80.283 35.8665 81.2335 35.3448 84.063 35.3448H89.8662V35.6021C89.8662 37.5889 87.4614 38.8108 84.1063 38.8108H84.0845ZM93.8405 41.7407V41.6549L93.3941 38.7392V32.9153C93.3941 28.7489 90.3268 25.9834 84.8335 25.9834C81.723 25.9834 78.2311 27.3554 77.0214 28.7205L77.8567 32.1005L77.9071 32.2792C79.4694 30.6427 82.6014 29.771 84.8335 29.771C87.591 29.771 89.8012 30.1497 89.8734 32.6864H84.6534C78.7423 32.6864 76.5104 34.4302 76.5104 37.4887C76.5104 41.0617 78.7424 42.2409 83.0911 42.2409C85.4958 42.2409 88.5413 41.1903 89.8662 39.5896V41.7335L93.8405 41.7407ZM56.7394 24.2396V37.8174H63.3347C67.9065 37.8174 70.2898 35.4306 70.2898 30.8284C70.2898 26.4908 67.9065 24.2468 63.3347 24.2468L56.7394 24.2396ZM52.9453 41.712V20.4237H63.3347C70.6209 20.4237 74.4152 23.9468 74.4152 30.707C74.4152 37.9246 70.6209 41.6835 63.3347 41.6835L52.9453 41.712Z" fill="white"/>
<path d="M23.6708 6.80312C25.1828 11.4982 24.974 14.1922 24.1819 18.8158C23.8651 18.0512 23.0659 16.5719 22.67 15.8501C22.7238 11.8417 21.2386 7.96315 18.5156 5.00231L20.3084 0C21.7613 2.09055 22.8944 4.38313 23.6708 6.80312Z" fill="white"/>
<path d="M41.1665 41.7978C37.3292 39.5967 31.6844 34.616 29.6468 31.5073C27.5102 28.2827 26.2685 24.5556 26.0469 20.7024C25.8345 17.0577 26.6736 13.4285 28.4661 10.2404C29.8854 7.75696 31.8888 5.65092 34.3051 4.1019C36.1555 2.92278 37.286 2.40829 38.3227 2.60122C39.3595 2.79416 40.1084 3.68029 41.1163 5.30247V5.34535C41.7255 6.46101 42.2083 7.64013 42.5562 8.86123C43.3022 11.3936 43.1703 14.1012 42.1818 16.5505C41.1319 18.9753 39.2562 20.956 36.8826 22.1459C35.1813 23.0005 33.3863 23.6575 31.5333 24.104C31.1827 22.6813 31.0733 21.2104 31.2091 19.7519C33.9525 18.1584 35.9179 16.4076 36.4435 15.3427C37.214 13.7921 37.3146 11.7197 36.4435 8.96128C36.3323 8.95268 36.2209 8.97234 36.1195 9.01846C35.9387 9.0852 35.7671 9.174 35.6084 9.28285C34.0404 10.289 32.7032 11.6112 31.6835 13.1637C30.6639 14.7162 29.9848 16.4642 29.69 18.2942C29.0204 22.4032 30.1292 26.8696 32.1814 30.757C32.97 32.0747 33.9391 33.2772 35.061 34.3301C37.2242 36.2982 39.4981 38.1425 41.8723 39.854L41.1665 41.7978Z" fill="white"/>
<path d="M1.14942 2.98718C6.03811 4.78801 13.1804 8.87564 16.8523 12.3844C21.0113 16.2788 24.1245 21.1424 25.9096 26.5339C27.666 31.8861 27.59 37.6647 25.6936 42.9699C24.2745 46.7555 22.0666 50.2011 19.2139 53.0816C17.1618 55.1898 15.6139 56.5977 13.9723 56.8906C12.3308 57.1837 10.6172 56.2904 8.57973 53.7034C7.59683 52.3416 6.76637 50.8776 6.10292 49.3371C4.49106 45.744 4.13871 41.7184 5.10213 37.9033C6.8661 31.3574 12.4532 27.2984 18.897 24.2397C19.7045 25.8625 20.228 27.6097 20.445 29.4065C16.9027 32.0578 13.1012 35.495 12.194 39.7827C11.6828 42.2196 12.1292 45.021 14.1307 48.0151C14.426 48.408 14.6275 48.5226 14.8004 48.4654C15.3414 48.1668 15.8281 47.7804 16.2403 47.3219C18.3436 45.2896 20.0157 42.8598 21.1578 40.1756C22.9537 35.6706 23.0788 30.6788 21.5105 26.0906C19.9132 21.3236 17.1989 17.001 13.5908 13.4778C10.5237 10.405 4.18057 6.64604 0.415039 5.07388L1.14942 2.98718Z" fill="white"/>
</svg>
